<?xml version="1.0" standalone="no"?>
<!DOCTYPE svg PUBLIC "-//W3C//DTD SVG 20010904//EN"
 "http://www.w3.org/TR/2001/REC-SVG-20010904/DTD/svg10.dtd">
<svg version="1.0" xmlns="http://www.w3.org/2000/svg"
 width="16.000000pt" height="16.000000pt" viewBox="0 0 16.000000 16.000000"
 preserveAspectRatio="xMidYMid meet">
<metadata>
Created by potrace 1.11, written by Peter Selinger 2001-2013
</metadata>
<g transform="translate(0.000000,16.000000) scale(0.002286,-0.002286)"
fill="#000000" stroke="none">
<path d="M3199 6326 c-2 -2 -47 -7 -99 -10 -52 -3 -104 -8 -115 -10 -11 -2
-51 -7 -90 -10 -38 -4 -81 -8 -95 -11 -14 -2 -54 -9 -90 -15 -137 -21 -226
-39 -265 -50 -16 -5 -43 -12 -60 -14 -16 -3 -75 -19 -130 -36 -55 -17 -107
-33 -115 -35 -28 -6 -174 -63 -260 -100 -450 -193 -855 -540 -1079 -925 -104
-178 -217 -477 -237 -625 -3 -22 -9 -56 -14 -75 -5 -19 -11 -55 -14 -80 -2
-25 -8 -74 -13 -110 -10 -84 -10 -1331 0 -1435 8 -80 13 -119 22 -165 3 -14 7
-41 10 -60 22 -136 92 -358 160 -505 127 -276 379 -593 621 -783 288 -226 683
-400 1129 -497 11 -3 40 -9 65 -15 43 -9 145 -28 200 -36 300 -44 422 -53 750
-53 118 0 240 2 270 4 186 12 239 16 275 21 77 9 260 33 280 37 11 3 40 8 65
12 25 4 54 9 65 12 11 2 31 6 45 9 14 2 36 7 50 10 14 3 32 7 40 9 8 2 35 8
60 14 25 7 53 13 62 16 135 32 390 121 537 187 271 121 474 256 661 440 403
394 592 768 615 1212 4 62 1 88 -14 121 -19 43 -67 87 -109 100 -25 7 -1802 9
-1838 1 -87 -18 -148 -71 -232 -201 -183 -284 -303 -368 -572 -405 -99 -14
-303 -17 -375 -6 -214 31 -383 108 -497 227 -84 88 -137 196 -153 314 -8 62
-8 1372 0 1439 12 95 62 208 114 254 37 33 190 136 241 162 107 55 241 81 420
84 386 6 605 -84 757 -310 22 -33 56 -88 76 -124 38 -69 86 -126 127 -151 65
-41 68 -41 1009 -41 904 0 908 0 950 21 61 32 94 87 97 166 2 60 -10 198 -22
255 -3 14 -7 39 -10 55 -11 64 -87 274 -130 360 -132 265 -349 519 -627 736
-263 205 -611 365 -1038 478 -63 17 -125 32 -139 35 -14 2 -68 13 -120 24 -52
11 -115 23 -140 26 -25 3 -54 8 -65 10 -11 2 -67 9 -125 15 -58 7 -121 14
-140 17 -41 6 -745 16 -751 10z"/>
</g>
</svg>
