<svg width="61" height="61" viewBox="0 0 61 61" xmlns="http://www.w3.org/2000/svg"><title>Combined Shape</title><path d="M43.135 0L61 17.866v25.268L43.135 61H17.866L0 43.134V17.866L17.866 0h25.269zm13.734 41.422V19.578L41.423 4.132H19.579L4.132 19.578v21.844L19.58 56.868h21.844L56.87 41.422zM8.399 24.463v-3.778h8.04v19.857h-4.262V24.463H8.4zm24.886 5.113c1.647 1.27 2.471 2.937 2.471 5 0 1.743-.7 3.21-2.102 4.404-1.402 1.193-3.23 1.79-5.483 1.79-2.254 0-4.081-.597-5.482-1.79-1.402-1.193-2.103-2.66-2.103-4.404 0-2.063.824-3.73 2.472-5-1.193-1.117-1.79-2.433-1.79-3.948 0-1.515.658-2.793 1.974-3.835 1.316-1.041 2.96-1.563 4.93-1.563 1.969 0 3.607.522 4.914 1.563 1.307 1.042 1.96 2.325 1.96 3.849 0 1.525-.587 2.836-1.761 3.934zM30.33 36.41c.663-.445.995-1.094.995-1.946 0-.852-.323-1.506-.966-1.96a3.702 3.702 0 0 0-2.188-.682 3.7 3.7 0 0 0-2.187.682c-.644.454-.966 1.108-.966 1.96 0 .852.331 1.501.994 1.946a3.794 3.794 0 0 0 2.16.667c.776 0 1.495-.222 2.158-.667zm-4.062-12.06c-.53.455-.796 1.019-.796 1.691 0 .673.27 1.236.81 1.69.54.455 1.17.682 1.89.682.719 0 1.349-.227 1.889-.682.539-.454.809-1.017.809-1.69 0-.672-.266-1.236-.795-1.69-.53-.455-1.165-.682-1.904-.682-.738 0-1.373.227-1.903.682zm12.47 7.983v-3.494h4.972v-5.113h3.92v5.113h4.972v3.494h-4.971v5.113H43.71v-5.113h-4.971z" fill="#686868" fill-rule="evenodd"/></svg>