<svg xmlns="http://www.w3.org/2000/svg" width="69" height="68" viewBox="0 0 69 68"><g fill="none" fill-rule="evenodd"><path fill="#F57D00" d="M34.579 68c-18.7 0-34-15.3-34-34s15.3-34 34-34 34 15.3 34 34-15.3 34-34 34"/><path d="M9.579 9h50v50h-50z"/><path fill="#FFF" d="M45.097 31.625h-1.303c-.39 0-.734-.142-1.033-.427a1.518 1.518 0 0 1-.495-1.01c0-2.037-.718-3.744-2.156-5.122C38.673 23.69 36.906 23 34.81 23h-3.774c-2.036 0-3.788.726-5.256 2.179-1.467 1.452-2.201 3.197-2.201 5.233v8.176c0 2.036.734 3.78 2.201 5.233C27.248 45.274 29 46 31.036 46h8.086c2.066 0 3.826-.726 5.278-2.179 1.453-1.452 2.179-3.197 2.179-5.233v-5.256c0-.45-.15-.846-.45-1.19-.299-.345-.643-.517-1.032-.517zm-14.33-2.875h4.312c.39 0 .726.142 1.01.427.285.284.428.621.428 1.01 0 .39-.143.727-.427 1.011a1.381 1.381 0 0 1-1.011.427h-4.313c-.389 0-.726-.142-1.01-.427a1.381 1.381 0 0 1-.427-1.01c0-.39.142-.727.427-1.011a1.381 1.381 0 0 1 1.01-.427zm8.625 11.5h-8.626c-.389 0-.726-.142-1.01-.427a1.381 1.381 0 0 1-.427-1.01c0-.39.142-.727.427-1.011a1.381 1.381 0 0 1 1.01-.427h8.626c.389 0 .726.142 1.01.427.285.284.427.621.427 1.01 0 .39-.142.727-.427 1.011a1.381 1.381 0 0 1-1.01.427z"/></g></svg>