<svg width="157" height="25" viewBox="0 0 157 25" xmlns="http://www.w3.org/2000/svg"><title>logo</title><path d="M10.15 1.887v4.528H5.731L0 11.513v8.539h9.597l5.653-5.098V1.887h-5.1zM5.1 15.497h5.05V10.97H5.1v4.528zm28.24-9.082h5.1v8.54l-5.705 5.096H23.19V6.415h5.101v9.082h5.049zm11.62 9.082h5.05V10.97h-5.05v4.527zm-5.1-3.984l5.732-5.097h9.518v8.538l-5.653 5.098H39.86v-8.54zm25.4-9.626v4.528h4.47v4.555h-4.47v4.527h4.47v4.554h-9.52V10.97h-5.1l5.101-4.555V1.887zm14.566 4.528H86.4v13.636h-5.102V10.97H76.25v9.081h-5.101V1.887h5.101v7.711zm12.831 9.082h5.048V10.97h-5.048v4.527zm10.15 0v4.555H91.078l-3.523-3.157v-5.382l5.706-5.097h9.544v5.899l-3.47 3.182h3.47zm6.52-9.082v3.183l3.55-3.183h5.653v3.183l3.55-3.183h5.653v13.636h-5.101V10.97h-4.102v9.081h-5.101V10.97h-4.102v9.081h-5.1V6.415zm24.663 9.082h5.049V10.97h-5.049v4.527zm10.15 0v4.555h-11.727l-3.524-3.157v-5.382l5.706-5.097h9.545v5.899l-3.47 3.182h3.47zm7.125-9.082l-5.705 5.098v6.261h6.205v2.278h-4.444v4.528h3.813l5.732-5.123v-6.21h-6.205V10.97h6.205V6.415zM16.67.697v4.58h5.014L16.67 9.779v10.272h5.101V.697z" fill="#CACACA" fill-rule="evenodd"/></svg>