<svg xmlns="http://www.w3.org/2000/svg" width="69" height="68" viewBox="0 0 69 68"><g fill="none" fill-rule="evenodd"><path fill="#DD4B39" d="M34.579 68c-18.7 0-34-15.3-34-34s15.3-34 34-34 34 15.3 34 34-15.3 34-34 34"/><path d="M9.579 9h50v50h-50z"/><path d="M18.4 33.295c.095-5.502 5.339-10.32 11.043-10.136 2.733-.123 5.303 1.024 7.396 2.636a38.68 38.68 0 0 1-2.807 2.804c-2.517-1.677-6.096-2.157-8.612-.22-3.6 2.402-3.764 8.072-.301 10.656 3.367 2.947 9.732 1.484 10.662-3.028-2.109-.03-4.224 0-6.333-.066a418.63 418.63 0 0 1-.005-3.64c3.526-.01 7.052-.016 10.584.01.211 2.855-.18 5.894-1.999 8.254-2.754 3.737-8.284 4.828-12.598 3.227-4.33-1.59-7.396-6-7.03-10.497m28.783-3.967h3.145c.006 1.015.01 2.035.021 3.05 1.053.01 2.11.01 3.162.02v3.034c-1.052.01-2.104.015-3.162.025a591.02 591.02 0 0 0-.02 3.049h-3.151c-.011-1.015-.011-2.03-.022-3.044l-3.16-.03v-3.034c1.051-.01 2.103-.015 3.16-.02.006-1.02.016-2.035.027-3.05" fill="#FFF"/></g></svg>