<svg xmlns="http://www.w3.org/2000/svg" width="85" height="40" viewBox="0 0 85 40"><path fill="#FF2B00" fill-rule="evenodd" d="M7.977 6.058c.476-.354 1.099-.531 1.868-.531.77 0 1.327.113 1.673.338.347.225.636.555.87.989.233.435.54.651.92.651h5.604c.156 0 .29-.054.402-.162a.522.522 0 0 0 .169-.39c0-1.556-.761-2.98-2.283-4.269-.761-.635-1.773-1.15-3.035-1.544C12.902.748 11.484.55 9.91.55c-3.89 0-6.667 1.078-8.328 3.235C.701 4.946.26 6.365.26 8.041v2.936c0 1.676.441 3.09 1.322 4.243.883 1.153 2.028 1.983 3.438 2.489 1.41.506 2.97.759 4.683.759 1.711 0 3.2-.197 4.462-.59 1.262-.393 2.274-.908 3.035-1.545 1.522-1.289 2.283-2.712 2.283-4.27a.52.52 0 0 0-.17-.388.557.557 0 0 0-.4-.164h-5.605c-.38 0-.687.218-.92.652-.234.435-.523.764-.87.99-.346.225-.903.337-1.673.337s-1.392-.176-1.868-.53c-.476-.354-.713-.861-.713-1.52V7.578c0-.66.237-1.167.713-1.521zM40.47.575h-5.422a.684.684 0 0 0-.493.201.64.64 0 0 0-.208.477v9.978c0 .686-.238 1.212-.714 1.58-.475.368-1.12.552-1.932.552-.814 0-1.457-.184-1.933-.552-.475-.368-.713-.894-.713-1.58V1.253a.64.64 0 0 0-.208-.477.686.686 0 0 0-.492-.2h-5.422a.685.685 0 0 0-.494.201.645.645 0 0 0-.207.479v9.626c0 2.605.852 4.52 2.556 5.746 1.702 1.226 4.007 1.84 6.913 1.84 2.906 0 5.21-.614 6.914-1.84 1.703-1.227 2.555-3.141 2.555-5.746V1.256a.643.643 0 0 0-.208-.479.684.684 0 0 0-.492-.202zm9.91 17.177c0 .188.068.35.207.486a.677.677 0 0 0 .492.204h5.345c.19 0 .354-.068.492-.204a.656.656 0 0 0 .208-.486V6.063h5.577a.68.68 0 0 0 .494-.204.658.658 0 0 0 .207-.485v-4.11a.66.66 0 0 0-.207-.485.681.681 0 0 0-.494-.204h-17.9a.68.68 0 0 0-.492.204.656.656 0 0 0-.208.486v4.109c0 .188.069.35.208.485a.678.678 0 0 0 .493.204h5.577v11.69zM84.7 13.67a.681.681 0 0 0-.493-.204H73.856v-1.608h8.665a.68.68 0 0 0 .493-.204.658.658 0 0 0 .207-.486V7.85a.66.66 0 0 0-.207-.485.68.68 0 0 0-.493-.205h-8.665V5.553h10.092a.68.68 0 0 0 .493-.204.658.658 0 0 0 .207-.486V1.265a.66.66 0 0 0-.207-.486.68.68 0 0 0-.493-.204H67.812a.677.677 0 0 0-.493.204.657.657 0 0 0-.207.486v16.488c0 .187.069.349.207.485a.675.675 0 0 0 .493.204h16.395a.68.68 0 0 0 .493-.204.658.658 0 0 0 .208-.485v-3.6a.658.658 0 0 0-.208-.484zm-66.1 8.364H.702a.68.68 0 0 0-.494.204.66.66 0 0 0-.207.485v4.11c0 .187.07.348.207.484a.678.678 0 0 0 .494.205h5.577V39.21c0 .188.07.35.208.485a.678.678 0 0 0 .493.205h5.344c.19 0 .354-.068.493-.205a.66.66 0 0 0 .207-.485V27.521h5.578c.19 0 .354-.068.493-.205a.66.66 0 0 0 .208-.485v-4.11a.662.662 0 0 0-.208-.484.681.681 0 0 0-.493-.204zm21.87 0h-5.422a.684.684 0 0 0-.493.2.64.64 0 0 0-.208.477v9.978c0 .686-.238 1.212-.714 1.58-.475.368-1.12.552-1.932.552-.814 0-1.457-.184-1.933-.552-.475-.368-.713-.894-.713-1.58V22.71a.64.64 0 0 0-.208-.477.686.686 0 0 0-.492-.2h-5.422a.685.685 0 0 0-.494.201.645.645 0 0 0-.207.48v9.625c0 2.605.852 4.52 2.556 5.746 1.702 1.227 4.007 1.84 6.913 1.84 2.906 0 5.21-.613 6.914-1.84 1.703-1.227 2.555-3.141 2.555-5.746v-9.626a.643.643 0 0 0-.208-.479.684.684 0 0 0-.492-.201zm20.701 8.55c.484-.153.95-.518 1.401-1.097.45-.58.674-1.277.674-2.094v-.076c0-1.77-.583-3.092-1.75-3.969-1.168-.876-2.98-1.315-5.435-1.315H45.63a.68.68 0 0 0-.492.205.657.657 0 0 0-.208.485V39.21c0 .188.069.35.208.485a.678.678 0 0 0 .493.204h10.687c4.878 0 7.316-1.87 7.316-5.614 0-.885-.242-1.672-.726-2.361-.484-.689-1.064-1.136-1.738-1.34zm-4.54 3.65c0 .323-.1.616-.298.88-.2.264-.497.396-.895.396h-3.761v-2.502h3.761c.363 0 .652.12.869.358.216.238.324.519.324.842v.026zm-4.954-7.81h3.475c.347 0 .61.11.792.332.181.221.272.484.272.79 0 .307-.09.583-.272.83-.182.247-.445.37-.792.37h-3.475v-2.322zm32.53 8.499h-10.35v-1.608h8.663c.19 0 .355-.068.494-.204a.658.658 0 0 0 .207-.486v-3.317a.66.66 0 0 0-.207-.485.681.681 0 0 0-.494-.205h-8.664V27.01h10.092a.68.68 0 0 0 .493-.204.658.658 0 0 0 .207-.486v-3.598a.66.66 0 0 0-.207-.486.68.68 0 0 0-.493-.204H67.812a.677.677 0 0 0-.493.204.657.657 0 0 0-.207.486v16.487c0 .188.069.35.207.485a.675.675 0 0 0 .493.204h16.395c.19 0 .355-.067.493-.204a.658.658 0 0 0 .208-.485v-3.598a.658.658 0 0 0-.208-.485.681.681 0 0 0-.493-.204z"/></svg>