<svg xmlns="http://www.w3.org/2000/svg" width="69" height="68" viewBox="0 0 69 68"><g fill="none" fill-rule="evenodd"><path fill="#FF4500" d="M34.579 68c-18.7 0-34-15.3-34-34s15.3-34 34-34 34 15.3 34 34-15.3 34-34 34"/><path d="M9.579 9h50v50h-50z"/><path fill="#FFF" d="M49.462 33.487c0 1.274-.568 2.298-1.706 3.071.091.455.137.797.137 1.024 0 2.593-1.377 4.811-4.13 6.654C41.012 46.08 37.702 47 33.835 47s-7.177-.921-9.93-2.764c-2.752-1.843-4.128-4.06-4.128-6.654 0-.5.022-.864.068-1.092-1.092-.728-1.638-1.729-1.638-3.003 0-1 .353-1.854 1.058-2.559a3.486 3.486 0 0 1 2.559-1.058c.819 0 1.592.296 2.32.888 2.594-1.684 5.687-2.548 9.282-2.594l2.525-7.166 6.074 1.502c.455-1.229 1.365-1.843 2.73-1.843.818 0 1.512.285 2.081.853.569.569.853 1.263.853 2.082s-.284 1.513-.853 2.081c-.569.569-1.263.853-2.082.853-.818 0-1.512-.284-2.081-.853-.569-.568-.853-1.262-.853-2.081l-5.12-1.229-2.115 5.801c3.503.137 6.483 1.001 8.94 2.594h.068c.728-.592 1.502-.888 2.32-.888 1.002 0 1.843.353 2.526 1.058.682.705 1.023 1.558 1.023 2.56zm-10.85 4.641a2.1 2.1 0 0 0 1.535-.648 2.1 2.1 0 0 0 .648-1.536c0-.637-.216-1.171-.648-1.604a2.1 2.1 0 0 0-1.536-.648c-.591 0-1.114.228-1.57.683-.454.455-.682.978-.682 1.57 0 .59.216 1.103.649 1.535.432.432.966.648 1.603.648zm.409 3.822c.273-.273.273-.546 0-.82-.273-.272-.546-.272-.82 0-.909.91-2.388 1.366-4.435 1.366-.91 0-1.718-.114-2.423-.341-.705-.228-1.183-.444-1.433-.649-.25-.205-.375-.33-.375-.375-.273-.319-.546-.341-.82-.068-.272.273-.295.546-.067.819 1.137 1.137 2.843 1.706 5.118 1.706 2.411 0 4.163-.546 5.255-1.638zm-11.875-6.006a2.1 2.1 0 0 0 .648 1.536c.433.432.945.648 1.536.648.637 0 1.172-.216 1.604-.648a2.1 2.1 0 0 0 .648-1.536c0-.591-.227-1.114-.682-1.57-.455-.454-.979-.682-1.57-.682-.591 0-1.103.216-1.536.648-.432.433-.648.967-.648 1.604z"/></g></svg>