<svg xmlns="http://www.w3.org/2000/svg" width="69" height="68" viewBox="0 0 69 68"><g fill="none" fill-rule="evenodd"><path fill="#F26522" d="M34.579 68c-18.7 0-34-15.3-34-34s15.3-34 34-34 34 15.3 34 34-15.3 34-34 34"/><path d="M9.579 9h50v50h-50z"/><path fill="#FFF" d="M24.5 20.5v4.594c3.5 0 6.743.867 9.727 2.601a19.225 19.225 0 0 1 7.078 7.078C43.04 37.758 43.907 41 43.907 44.5H48.5c0-3.25-.632-6.36-1.898-9.328-1.266-2.969-2.969-5.524-5.11-7.664-2.14-2.14-4.695-3.844-7.663-5.11A23.545 23.545 0 0 0 24.5 20.5zm11.204 24h4.64c0-2.875-.71-5.523-2.133-7.945a15.936 15.936 0 0 0-5.765-5.766c-2.422-1.422-5.07-2.133-7.946-2.133v4.594c3.094 0 5.735 1.094 7.922 3.281 2.188 2.188 3.282 4.844 3.282 7.969zm-8.016-.047a3.11 3.11 0 0 0 2.25-.914c.625-.61.937-1.36.937-2.25 0-.89-.312-1.648-.937-2.273a3.069 3.069 0 0 0-2.25-.938c-.875 0-1.625.313-2.25.938a3.096 3.096 0 0 0-.938 2.273c0 .89.313 1.64.938 2.25.625.61 1.375.914 2.25.914z"/></g></svg>