<svg xmlns="http://www.w3.org/2000/svg" width="69" height="68" viewBox="0 0 69 68"><g fill="none" fill-rule="evenodd"><path fill="#35465C" d="M34.579 68c-18.7 0-34-15.3-34-34s15.3-34 34-34 34 15.3 34 34-15.3 34-34 34"/><path d="M9.579 9h50v50h-50z"/><path fill="#FFF" d="M40.873 42.442c-.49.237-1.425.443-2.122.46-2.106.057-2.515-1.5-2.532-2.629v-8.305h5.283v-4.04h-5.264v-6.796h-3.853c-.063 0-.174.057-.19.2-.225 2.08-1.185 5.73-5.175 7.19v3.446h2.662v8.717c0 2.984 2.17 7.225 7.901 7.125 1.934-.034 4.081-.855 4.555-1.564l-1.265-3.804"/></g></svg>