<svg xmlns="http://www.w3.org/2000/svg" width="69" height="68" viewBox="0 0 69 68"><g fill="none" fill-rule="evenodd"><path fill="#1DA1F2" d="M34.579 68c-18.7 0-34-15.3-34-34s15.3-34 34-34 34 15.3 34 34-15.3 34-34 34"/><path d="M9.579 9h50v50h-50z"/><path fill="#FFF" d="M47.242 25.234c-1.01.586-2.1.993-3.272 1.221-1.009-1.074-2.262-1.611-3.76-1.611-1.4 0-2.604.504-3.613 1.513-1.01 1.01-1.514 2.214-1.514 3.614 0 .39.05.781.147 1.172a14.192 14.192 0 0 1-5.884-1.563 14.138 14.138 0 0 1-4.663-3.809 4.786 4.786 0 0 0-.732 2.588c0 1.823.765 3.24 2.294 4.248a4.437 4.437 0 0 1-2.294-.634v.097c0 1.205.382 2.279 1.147 3.223s1.75 1.546 2.954 1.807a6.508 6.508 0 0 1-1.367.146c-.326 0-.651-.032-.977-.098a5.384 5.384 0 0 0 1.831 2.564 4.698 4.698 0 0 0 2.955 1c-1.856 1.466-3.972 2.198-6.348 2.198-.39 0-.798-.016-1.22-.049 2.408 1.53 5.028 2.295 7.86 2.295 2.28 0 4.362-.44 6.25-1.318 1.889-.879 3.427-2.026 4.615-3.442a16.24 16.24 0 0 0 2.759-4.688c.65-1.709.976-3.426.976-5.151v-.635a10.481 10.481 0 0 0 2.54-2.686c-.945.424-1.921.7-2.93.83 1.106-.683 1.855-1.627 2.246-2.832z"/></g></svg>